<svg xmlns="http://www.w3.org/2000/svg" viewBox="0 0 560 420" role="img" aria-label="Loan documents, coins and a growth chart">
  <rect width="560" height="420" rx="28" fill="#fbf6ea"/>
  <circle cx="440" cy="90" r="120" fill="#f3e7c8" opacity=".7"/>
  <!-- document -->
  <rect x="70" y="60" width="210" height="270" rx="14" fill="#fff" stroke="#1e3f70" stroke-width="5"/>
  <rect x="96" y="92" width="110" height="14" rx="7" fill="#1e3f70"/>
  <rect x="96" y="124" width="158" height="10" rx="5" fill="#d8deea"/>
  <rect x="96" y="148" width="140" height="10" rx="5" fill="#d8deea"/>
  <rect x="96" y="172" width="158" height="10" rx="5" fill="#d8deea"/>
  <rect x="96" y="196" width="100" height="10" rx="5" fill="#d8deea"/>
  <circle cx="226" cy="270" r="32" fill="#2b6a4b"/>
  <path d="M210 270 l12 12 l22 -24" fill="none" stroke="#fff" stroke-width="7" stroke-linecap="round" stroke-linejoin="round"/>
  <rect x="96" y="256" width="80" height="10" rx="5" fill="#c9a65b"/>
  <rect x="96" y="278" width="60" height="10" rx="5" fill="#c9a65b"/>
  <!-- calculator -->
  <g transform="translate(300 110)">
    <rect width="130" height="180" rx="14" fill="#1e3f70"/>
    <rect x="14" y="14" width="102" height="42" rx="8" fill="#eef2f8"/>
    <text x="104" y="45" text-anchor="end" font-family="Poppins,Arial,sans-serif" font-size="22" font-weight="700" fill="#1e3f70">12,450</text>
    <g fill="#c9a65b">
      <rect x="14" y="72" width="26" height="22" rx="6"/><rect x="52" y="72" width="26" height="22" rx="6"/><rect x="90" y="72" width="26" height="22" rx="6"/>
      <rect x="14" y="104" width="26" height="22" rx="6"/><rect x="52" y="104" width="26" height="22" rx="6"/><rect x="90" y="104" width="26" height="22" rx="6"/>
      <rect x="14" y="136" width="26" height="22" rx="6"/><rect x="52" y="136" width="26" height="22" rx="6"/>
    </g>
    <rect x="90" y="136" width="26" height="22" rx="6" fill="#2b6a4b"/>
  </g>
  <!-- coins -->
  <g transform="translate(470 330)">
    <ellipse rx="40" ry="12" cy="0" fill="#b08d3f"/><ellipse rx="40" ry="12" cy="-12" fill="#c9a65b"/>
    <ellipse rx="40" ry="12" cy="-24" fill="#b08d3f"/><ellipse rx="40" ry="12" cy="-36" fill="#c9a65b"/>
    <ellipse rx="40" ry="12" cy="-48" fill="#b08d3f"/><ellipse rx="40" ry="12" cy="-60" fill="#c9a65b"/>
  </g>
  <!-- growth arrow -->
  <path d="M330 350 L380 310 L410 328 L470 250" fill="none" stroke="#2b6a4b" stroke-width="7" stroke-linecap="round" stroke-linejoin="round"/>
  <path d="M448 246 L472 246 L472 270" fill="none" stroke="#2b6a4b" stroke-width="7" stroke-linecap="round" stroke-linejoin="round"/>
</svg>
